<svg xmlns="http://www.w3.org/2000/svg" viewBox="0 0 760 230" fill="none">
  <defs>
    <linearGradient id="logoTeal" x1="30" y1="14" x2="196" y2="200" gradientUnits="userSpaceOnUse">
      <stop stop-color="#1C8A84"/>
      <stop offset="1" stop-color="#0A5A58"/>
    </linearGradient>
    <linearGradient id="logoGold" x1="54" y1="14" x2="164" y2="186" gradientUnits="userSpaceOnUse">
      <stop stop-color="#F2E0AE"/>
      <stop offset="0.48" stop-color="#D6B779"/>
      <stop offset="1" stop-color="#A67D3D"/>
    </linearGradient>
  </defs>
  <g transform="translate(10 8)">
    <path d="M95 0l11 15 18-7 5 18 19 1-2 19 17 9-9 16 13 14-14 13 9 16-17 9 2 19-19 1-5 18-18-7-11 15-11-15-18 7-5-18-19-1 2-19-17-9 9-16-14-13 14-14-9-16 17-9-2-19 19-1 5-18 18 7L95 0z" fill="url(#logoGold)"/>
    <path d="M95 18c34.8 0 63 28.2 63 63s-28.2 63-63 63-63-28.2-63-63 28.2-63 63-63zm0 16c-25.9 0-47 21.1-47 47s21.1 47 47 47 47-21.1 47-47-21.1-47-47-47z" fill="url(#logoTeal)"/>
    <path d="M95 34c25.9 0 47 21.1 47 47s-21.1 47-47 47-47-21.1-47-47 21.1-47 47-47zm0 13c-18.7 0-34 15.3-34 34s15.3 34 34 34 34-15.3 34-34-15.3-34-34-34z" fill="#081817"/>
    <path d="M65 108l21-58h16l22 58h-15l-4-10H84l-3 10H65zm23-22h12l-6-18-6 18z" fill="url(#logoTeal)"/>
    <path d="M56 101l17-10 12 18-17 10-12-18z" fill="url(#logoGold)"/>
    <path d="M114 109l12-18 17 10-12 18-17-10z" fill="url(#logoGold)"/>
    <path d="M88 60l7-22 7 22-7 8-7-8z" fill="url(#logoGold)"/>
    <path d="M104 76l14 14-9 9-14-14 9-9z" fill="url(#logoGold)"/>
    <path d="M88 82h15v15H88z" rx="2.5" fill="url(#logoGold)"/>
  </g>
  <g transform="translate(210 52)">
    <text x="0" y="52" fill="#0A5A58" font-family="Arial, Helvetica, sans-serif" font-size="60" font-weight="900" letter-spacing="1.8">SURYA DUTA</text>
    <text x="4" y="112" fill="#A67D3D" font-family="Arial, Helvetica, sans-serif" font-size="42" font-weight="900" letter-spacing="3">MULTINDO</text>
    <text x="4" y="144" fill="#0A5A58" font-family="Arial, Helvetica, sans-serif" font-size="15" font-weight="700" letter-spacing="1.2">DISTRIBUTOR &amp; SISTEM MANAJEMEN ALAT BERAT</text>
  </g>
</svg>
