<svg xmlns="http://www.w3.org/2000/svg" viewBox="0 0 220 220" fill="none">
  <defs>
    <linearGradient id="sdmTeal" x1="46" y1="34" x2="178" y2="190" gradientUnits="userSpaceOnUse">
      <stop stop-color="#1C8A84"/>
      <stop offset="1" stop-color="#0A5A58"/>
    </linearGradient>
    <linearGradient id="sdmGold" x1="66" y1="22" x2="164" y2="190" gradientUnits="userSpaceOnUse">
      <stop stop-color="#F2E0AE"/>
      <stop offset="0.48" stop-color="#D6B779"/>
      <stop offset="1" stop-color="#A67D3D"/>
    </linearGradient>
  </defs>
  <g>
    <path d="M110 18l12 17 20-8 6 20 22 1-2 22 20 10-10 19 15 16-16 15 10 19-20 10 2 22-22 1-6 20-20-8-12 17-12-17-20 8-6-20-22-1 2-22-20-10 10-19-16-15 16-16-10-19 20-10-2-22 22-1 6-20 20 8 12-17z" fill="url(#sdmGold)"/>
    <path d="M110 38c39.8 0 72 32.2 72 72s-32.2 72-72 72-72-32.2-72-72 32.2-72 72-72zm0 18c-29.8 0-54 24.2-54 54s24.2 54 54 54 54-24.2 54-54-24.2-54-54-54z" fill="url(#sdmTeal)"/>
    <path d="M110 56c29.8 0 54 24.2 54 54s-24.2 54-54 54-54-24.2-54-54 24.2-54 54-54zm0 15c-21.5 0-39 17.5-39 39s17.5 39 39 39 39-17.5 39-39-17.5-39-39-39z" fill="#071716"/>
    <path d="M74 142l24-70h18l26 70h-18l-4-12H95l-4 12H74zm27-27h14l-7-22-7 22z" fill="url(#sdmTeal)"/>
    <path d="M62 133l20-11 14 21-20 11-14-21z" fill="url(#sdmGold)"/>
    <path d="M143 143l14-21 20 11-14 21-20-11z" fill="url(#sdmGold)"/>
    <path d="M102 84l8-27 8 27-8 9-8-9z" fill="url(#sdmGold)"/>
    <path d="M119 103l17 17-11 11-17-17 11-11z" fill="url(#sdmGold)"/>
    <path d="M101 111h18v18h-18z" rx="3" fill="url(#sdmGold)"/>
  </g>
</svg>
